<svg viewBox="-0.5 -0.5 16 16" fill="none" xmlns="http://www.w3.org/2000/svg" id="Watch-Round--Streamline-Solar-Broken.svg" height="16" width="16"><desc>Watch Round Streamline Icon: https://streamlinehq.com</desc><path d="m10.625 4.0625 -0.1899375 -0.8548250000000001c-0.20856249999999998 -0.9385187500000001 -0.312875 -1.40778125 -0.6556249999999999 -1.682725C9.4366875 1.25 8.956 1.25 7.9945625 1.25h-0.989125c-0.96141875 0 -1.4421249999999999 0 -1.78488125 0.27494999999999997 -0.34275625 0.27494375000000004 -0.4470375 0.7442062500000001 -0.65559375 1.682725L4.375 4.0625" stroke="#000000" stroke-width="1"></path><path d="m10.625 10.9375 -0.1899375 0.8548125c-0.20856249999999998 0.9385625 -0.312875 1.4078125 -0.6556249999999999 1.68275C9.4366875 13.75 8.956 13.75 7.9945625 13.75h-0.989125c-0.96141875 0 -1.4421249999999999 0 -1.78488125 -0.2749375 -0.34275625 -0.2749375 -0.4470375 -0.7441875 -0.65559375 -1.68275L4.375 10.9375" stroke="#000000" stroke-width="1"></path><path d="M2.9716500000000003 6.286125c0.20550625 -0.7695249999999999 0.610125 -1.4969625 1.21385 -2.1006875 1.8305812499999998 -1.8305812499999998 4.7985625 -1.8305812499999998 6.629125 0 1.8305625 1.8305812499999998 1.8305625 4.7985625 0 6.629125 -1.8305625 1.8305625 -4.79854375 1.8305625 -6.629125 0 -0.6037250000000001 -0.60375 -1.00834375 -1.3311875 -1.21385 -2.1006875" stroke="#000000" stroke-linecap="round" stroke-width="1"></path><path d="M7.5 5.576925V7.5l1.25 1.2019375" stroke="#000000" stroke-linecap="round" stroke-linejoin="round" stroke-width="1"></path></svg>